<svg width="161" height="71" fill="none" xmlns="http://www.w3.org/2000/svg"><path fill-rule="evenodd" clip-rule="evenodd" d="M14.282 44.8c1.768 0 3.232-.786 4.346-1.757 1.582-1.379 2.428-3.114 2.445-3.15l-.042.08s.686-1.32-.284-2.222c-.427-.397-.833-.446-1.164-.406-.703.083-1.171.861-1.171.861-.005.011-.01.019-.013.028-.007.014-.672 1.362-1.896 2.3-1.486 1.138-3.125 1.052-4.873-.143a1.09 1.09 0 0 0-.977-.133 1.154 1.154 0 0 0-.707.715l-.344.977c-.18.514.003 1.09.444 1.39 1.562 1.068 2.982 1.46 4.236 1.46ZM56.74 36.618c1.6-.785 2.58-2.1 3.163-3.413.826-1.868.83-3.708.83-3.747l-.001.088s.04-1.422-1.231-1.752c-.561-.145-.95-.007-1.23.173-.6.384-.683 1.248-.683 1.248v.03c0 .015-.011 1.448-.707 2.785-.846 1.62-2.366 2.274-4.47 2.042a1.169 1.169 0 0 0-.943.322 1.1 1.1 0 0 0-.326.917l.117.977c.062.515.48.92 1.011.98 1.88.206 3.337-.093 4.47-.65Z" fill="#343132"/><path fill-rule="evenodd" clip-rule="evenodd" d="M30.236 18.85c12.154-3.194 23.46-5.016 24.013-3.192 1.045 3.448-7.774 10.095-19.928 13.288-12.153 3.194-22.727 2.336-23.703-1.132-.446-1.585 7.466-5.77 19.618-8.964Z" fill="#9E8F79"/><path fill-rule="evenodd" clip-rule="evenodd" d="M29.975 17.837c-8.677 2.289-15.227 5.094-18.224 7.117-1.083.731-1.745 1.416-2.01 1.94-.23.456-.25.872-.151 1.227.365 1.3 1.71 2.434 3.958 3.098 4.331 1.282 12.291 1.065 21.045-1.244 8.767-2.314 15.83-6.414 18.92-9.868 1.6-1.786 2.157-3.496 1.767-4.787-.11-.37-.361-.71-.808-.966-.355-.203-.898-.363-1.616-.436-3.63-.373-12.984 1.307-22.881 3.919ZM53.35 16.1c.047.419-.14.89-.446 1.411-.483.82-1.287 1.7-2.347 2.606-3.402 2.912-9.362 5.996-16.49 7.877-7.14 1.884-13.721 2.35-18.051 1.673-1.343-.21-2.458-.527-3.276-.96-.524-.276-.92-.577-1.1-.957.173-.183.705-.722 1.266-1.1 2.89-1.952 9.224-4.624 17.596-6.832 8.427-2.224 16.442-3.79 20.682-3.9.666-.018 1.23 0 1.677.064.174.025.373.081.489.118Z" fill="#343132"/><path d="m53.818 63.022-24.005 5.162c-1.763.379-3.456-.58-3.785-2.139L15.99 24.185c-.329-1.56.833-3.13 2.594-3.51l26.322-5.659c1.76-.379 3.455.578 3.784 2.139l7.722 42.357c.33 1.56-.833 3.132-2.593 3.51Z" fill="#92B45E"/><path fill-rule="evenodd" clip-rule="evenodd" d="M54.417 65.168c2.86-.602 4.61-3.193 4.092-5.673l-7.806-41.891-.011-.052c-.536-2.488-3.213-4.166-6.084-3.561l-26.625 5.6c-2.872.604-4.623 3.213-4.087 5.7a.856.856 0 0 0 .012.052l10.15 41.4c.548 2.472 3.215 4.135 6.077 3.534l24.282-5.109Zm-.396-1.837-24.282 5.108c-1.783.374-3.495-.574-3.828-2.117L15.756 24.9c-.333-1.543.842-3.098 2.623-3.473l26.626-5.6c1.78-.375 3.495.572 3.828 2.116l7.811 41.915c.333 1.543-.842 3.098-2.623 3.473Z" fill="#343132"/><path d="m50.976 56.167-21.593 4.56c-1.51.319-2.95-.44-3.222-1.694l-8.05-31.86c-.27-1.255.735-2.53 2.245-2.85l23.913-5.05c1.51-.32 2.952.44 3.221 1.693l5.733 32.351c.27 1.255-.736 2.53-2.247 2.85Z" fill="#CBCBCB"/><mask id="a" style="mask-type:alpha" maskUnits="userSpaceOnUse" x="18" y="19" width="36" height="42"><path fill-rule="evenodd" clip-rule="evenodd" d="m50.976 56.167-21.593 4.56c-1.51.319-2.95-.44-3.222-1.694l-8.05-31.86c-.27-1.255.735-2.53 2.245-2.85l23.913-5.05c1.51-.32 2.952.44 3.221 1.693l5.733 32.351c.27 1.255-.736 2.53-2.247 2.85Z" fill="#fff"/></mask><g mask="url(#a)"><path d="M23.124 44.961 21.4 36.924c2.49-2.983 9.243-10.819 12.108-14.137l5.54-1.17c-3.232 4.63-12.906 18.895-15.923 23.344Z" fill="#DCDCDC"/></g><mask id="b" style="mask-type:alpha" maskUnits="userSpaceOnUse" x="18" y="19" width="36" height="42"><path fill-rule="evenodd" clip-rule="evenodd" d="m50.976 56.167-21.593 4.56c-1.51.319-2.95-.44-3.222-1.694l-8.05-31.86c-.27-1.255.735-2.53 2.245-2.85l23.913-5.05c1.51-.32 2.952.44 3.221 1.693l5.733 32.351c.27 1.255-.736 2.53-2.247 2.85Z" fill="#fff"/></mask><g mask="url(#b)"><path fill-rule="evenodd" clip-rule="evenodd" d="m33.506 22.787 5.541-1.17c.63-.901 1.016-1.437 1.059-1.465l.007-.001h-.005l-.002.001-5.288 1.117-1.312 1.518Zm-13.05 15.318 1.76 8.196.908-1.34-1.725-8.036c-.598.715-.949 1.151-.944 1.18Z" fill="#DCDCDC"/></g><mask id="c" style="mask-type:alpha" maskUnits="userSpaceOnUse" x="18" y="19" width="36" height="42"><path fill-rule="evenodd" clip-rule="evenodd" d="m50.976 56.167-21.593 4.56c-1.51.319-2.95-.44-3.222-1.694l-8.05-31.86c-.27-1.255.735-2.53 2.245-2.85l23.913-5.05c1.51-.32 2.952.44 3.221 1.693l5.733 32.351c.27 1.255-.736 2.53-2.247 2.85Z" fill="#fff"/></mask><g mask="url(#c)"><path d="m37.682 58.974-9.458 1.998s21.446-28.853 21.65-28.897l.001.001 1.025 4.773-13.218 22.125Z" fill="#DCDCDC"/></g><path d="M28.527 60.09 20.56 28.141c-.265-1.257.728-2.536 2.222-2.856l23.656-5.064a3.14 3.14 0 0 1 1.496.038c-.555-.813-1.696-1.241-2.88-.987L21.4 24.338c-1.494.32-2.489 1.598-2.222 2.856l7.965 31.946c.175.817.84 1.423 1.693 1.66a1.958 1.958 0 0 1-.308-.71Z" fill="#343132"/><path fill-rule="evenodd" clip-rule="evenodd" d="m35.412 19.212-5.089.948c-.354.066-.583.38-.51.7.074.32.42.527.774.461l5.09-.948c.355-.066.583-.38.509-.7-.073-.32-.42-.527-.774-.46ZM28.2 20.267a.534.534 0 1 1 0 1.067.534.534 0 0 1 0-1.067Z" fill="#343132"/><path d="M30.819 32.623a2.132 2.132 0 1 1-4.173.887 2.132 2.132 0 0 1 4.173-.887Z" fill="#353132"/><path d="M28.722 32.422a.533.533 0 1 1-1.044.222.533.533 0 0 1 1.044-.222Z" fill="#fff"/><path d="M24.837 27.78c-.171.154-.337.334-.366.55-.031.214.132.463.375.47.177.005.325-.108.459-.209a6.06 6.06 0 0 1 2.7-1.124c.19-.03.394-.054.551-.157.156-.104.24-.32.12-.455-.07-.079-.188-.112-.3-.13-1.273-.232-2.65.255-3.539 1.055ZM44.686 29.422a2.133 2.133 0 1 1-4.172.89 2.133 2.133 0 0 1 4.172-.89Z" fill="#353132"/><path d="M42.588 30.289a.534.534 0 1 1-1.045.22.534.534 0 0 1 1.045-.22Z" fill="#fff"/><path d="M41.088 23.674c-.212.066-.43.154-.55.316-.12.16-.092.412.111.497.146.062.32.021.477-.015a6.301 6.301 0 0 1 2.768-.004c.175.04.355.085.532.056.177-.03.343-.174.301-.321-.025-.086-.11-.15-.195-.203-.971-.602-2.344-.67-3.444-.326Z" fill="#353132"/><path d="M33.457 36.453a.404.404 0 0 0-.397.198.434.434 0 0 0 .01.455c.648 1.004 1.946 2.578 3.64 2.336 1.794-.256 2.451-2.468 2.683-3.738a.43.43 0 0 0-.167-.425.404.404 0 0 0-.446-.022c-.548.299-1.394.68-2.483.954a8.919 8.919 0 0 1-2.84.242Z" fill="#AF3F3B"/><path d="M41.244 33.104c-.23.076.69.24.172.862-.715.857-2.928-.903-4.506-.217a1.762 1.762 0 0 0-.966.97 2.083 2.083 0 0 0-1.4-.378c-1.752.145-2.588 2.669-3.706 2.27-.811-.288-.126-.854-.366-.812-.935.162-1.138 2.043 1.001 2.49 1.816.379 3.325-.28 4.066-.941.272-.245.63-.577.97-.87.462.093.964.21 1.342.29 1.025.221 2.7.084 4.021-1.08 1.557-1.37.265-2.878-.628-2.584Z" fill="#000"/><path fill-rule="evenodd" clip-rule="evenodd" d="M25.238 2.642a.973.973 0 0 1 1.304-.399L53.267 16.15s-9.227-3.046-21.273.367C16.483 20.91 11.667 27.733 11.667 27.733L25.238 2.642Z" fill="#CEC4AE"/><path fill-rule="evenodd" clip-rule="evenodd" d="M23.43 1.567 9.774 26.912a2.003 2.003 0 0 0 3.399 2.105s4.643-6.37 19.365-10.558c11.456-3.258 20.231-.396 20.231-.396a2.004 2.004 0 0 0 1.554-3.68L27.43.34a2.977 2.977 0 0 0-4 1.228Zm1.762.95a.977.977 0 0 1 1.313-.402l26.894 14.047s-9.286-3.076-21.408.37c-15.61 4.439-20.456 11.33-20.456 11.33L25.192 2.518Z" fill="#343132"/><path fill-rule="evenodd" clip-rule="evenodd" d="M14.841 21.311s4.332-1.038 8.168-3.654a.93.93 0 0 0 .254-1.246.828.828 0 0 0-1.179-.268c-3.58 2.442-7.62 3.41-7.62 3.41-.459.11-.747.594-.643 1.078.104.485.561.79 1.02.68ZM17.008 15.986s2.623-.444 4.905-1.716c.422-.236.547-.728.281-1.099-.266-.372-.825-.482-1.246-.248-1.993 1.111-4.281 1.498-4.281 1.498-.49.083-.81.5-.717.931.095.434.567.717 1.058.634Z" fill="#343132"/><path d="M14.132 43.759c-1.127 1.66-3.144 2.518-4.505 1.914-1.362-.604-1.552-2.438-.425-4.098 1.127-1.661 3.144-2.518 4.505-1.916 1.36.604 1.552 2.44.425 4.1ZM9.652 31.184c-.061 3.884 2.345 5.323 1.976 6.483-.37 1.16-2.188 2.14-3.369 1.686-1.18-.453-.939-4.474-1.33-5.95-.286-1.082-1.64-2.377 1.038-4.35 1.4-1.028 1.698 1.353 1.685 2.13Z" fill="#fff"/><path d="M12.586 38.407c.284-.023.58.01.857.114.267.113.53.268.729.484.403.429.615.99.672 1.543.121 1.12-.25 2.23-.866 3.166-.318.465-.7.897-1.156 1.259-.462.352-.988.651-1.582.799-.297.063-.604.118-.917.084-.306-.029-.616-.097-.88-.248a1.907 1.907 0 0 1-.976-1.316c.245.473.63.876 1.12 1.038.48.182 1.014.13 1.495-.029.48-.176.93-.441 1.315-.776.39-.334.729-.72 1.005-1.144.287-.418.512-.874.67-1.346.166-.471.245-.964.245-1.454.003-.123-.015-.244-.026-.365-.026-.118-.036-.242-.075-.357a2.013 2.013 0 0 0-.306-.664c-.135-.211-.336-.37-.554-.52a2.15 2.15 0 0 0-.77-.268Z" fill="#343132" stroke="#343132" stroke-width=".956" stroke-linejoin="round"/><path d="M12.26 40.535c-.944 2.117-1.976 3.467-3.091 3.153a1.487 1.487 0 0 1-.368-.163c-1.256-.761 1.414-6.98 1.676-7.043.261-.063 1.972-.72 2.211.629.159.888-.128 2.75-.428 3.424Z" fill="#fff"/><path d="M10.6 37.812c0 3.126-1.441 6.094-4.026 5.913-1.71-.12-.802-.575-1.237-.66-.232-.047-.841.16-1.056.118-3.612-.676-4.043-2.751-2.26-6.115.17-.322-.414-1.058-.414-1.394 0-3.126 2.85-2.569 5.444-2.569 2.592 0 3.549 1.582 3.549 4.707Z" fill="#fff"/><path d="M4.2 36.974c.688-.29 1.405-.564 2.178-.663a4.386 4.386 0 0 1 1.185-.007c.398.063.817.196 1.156.474.168.14.312.304.429.485.106.172.19.36.256.552.132.385.167.803.088 1.203a1.934 1.934 0 0 1-.567 1.048 1.75 1.75 0 0 1-1.049.467c.35-.14.65-.358.851-.64.206-.275.31-.604.34-.933a2.215 2.215 0 0 0-.398-1.403 1.561 1.561 0 0 0-.311-.336c-.497-.378-1.23-.459-1.942-.442-.362.008-.727.038-1.095.08-.37.032-.737.112-1.12.115ZM4.2 40.884c.922-.205 1.869-.387 2.85-.345.49.018.991.098 1.473.311.24.11.468.27.646.48.179.21.294.469.34.727a2.39 2.39 0 0 1-.011.742 3.224 3.224 0 0 1-.17.702c-.17.455-.516.917-1.021 1.124a2.17 2.17 0 0 1-.762.172 3.924 3.924 0 0 1-.745-.047c-.244-.048-.492-.117-.702-.26a.846.846 0 0 1-.252-.27c-.055-.106-.076-.228-.055-.339.02.23.197.396.392.478.2.084.425.114.649.12.452.003.915-.036 1.268-.234.352-.194.59-.52.71-.907.062-.192.106-.395.13-.603a1.87 1.87 0 0 0 0-.59c-.052-.368-.298-.656-.667-.84-.364-.194-.812-.283-1.262-.345-.91-.118-1.856-.059-2.81-.076Z" fill="#343132" stroke="#343132" stroke-width=".956" stroke-linejoin="round"/><path d="M2.644 37.333c-.502.69-.86 1.426-1.013 2.188-.068.38-.106.766-.063 1.145.033.377.122.75.288 1.093.307.694.94 1.263 1.77 1.506.83.252 1.784.198 2.707.022-.836.373-1.846.572-2.842.359-.493-.1-.958-.32-1.341-.616a3.108 3.108 0 0 1-.85-1.082c-.368-.811-.382-1.704-.125-2.513a4.413 4.413 0 0 1 1.469-2.102ZM8.276 43.733a3.202 3.202 0 0 0 1.515-.595c.43-.315.775-.713 1.054-1.145.562-.865.893-1.843 1.117-2.827.107-.492.184-.999.2-1.483.018-.46-.17-.889-.447-1.314-.275-.426-.599-.86-.878-1.322a8.128 8.128 0 0 1-.708-1.457c-.37-1.014-.494-2.08-.506-3.123-.006-.508-.016-1.009-.134-1.469-.058-.227-.149-.444-.28-.588-.134-.144-.29-.198-.517-.18-.45.038-.898.353-1.23.718-.337.37-.605.811-.732 1.279-.065.232-.07.47-.06.72.01.246.056.492.133.733.073.24.177.477.275.722.097.243.163.506.145.764-.022-.258-.129-.495-.255-.722-.124-.228-.265-.456-.37-.702a3.082 3.082 0 0 1-.265-1.17c0-.14.014-.278.041-.413a3.395 3.395 0 0 1 .727-1.472 3.16 3.16 0 0 1 .64-.59c.249-.168.546-.308.886-.352.168-.02.36-.017.544.039.183.056.343.165.463.285.237.249.346.529.428.797.15.54.177 1.072.192 1.59.017 1.01.158 2.006.496 2.95.167.47.386.923.648 1.36.259.441.57.86.851 1.329.14.235.273.483.363.756.09.27.134.566.118.848-.03.544-.146 1.053-.28 1.565-.275 1.014-.69 2.01-1.342 2.882-.332.429-.729.829-1.215 1.12a3.18 3.18 0 0 1-1.617.467Z" fill="#343132" stroke="#343132" stroke-width=".956" stroke-linejoin="round"/><path d="M1.32 37.333c.183-.496.013-.982-.147-1.467-.076-.247-.153-.5-.17-.776-.018-.28.065-.573.238-.829a2.05 2.05 0 0 1 .718-.626c.287-.162.6-.28.921-.365a6.753 6.753 0 0 1 1.98-.197c1.317.07 2.613.393 3.676 1.048.257.172.511.355.695.594.185.234.318.514.3.806-.025.29-.198.548-.426.738-.226.195-.5.335-.782.451.243-.163.469-.341.634-.544.168-.2.266-.428.242-.647-.022-.219-.151-.421-.33-.597-.173-.178-.406-.326-.646-.46a7.094 7.094 0 0 0-1.628-.595 8.694 8.694 0 0 0-1.77-.252 6.178 6.178 0 0 0-1.753.145c-.56.122-1.076.36-1.377.717a1.11 1.11 0 0 0-.25.615c-.02.23.017.476.054.725.033.252.075.51.062.771-.01.26-.083.523-.24.745Z" fill="#343132" stroke="#343132" stroke-width=".956" stroke-linejoin="round"/><path d="M58.962 32.83c1.471 1.422 3.456 1.729 4.436.68.978-1.045.578-3.049-.892-4.473-1.472-1.423-3.458-1.729-4.437-.681-.979 1.046-.58 3.049.893 4.473Z" fill="#fff"/><path d="M57.767 19.759c1.198 3.77-.62 5.929.064 6.944.684 1.015 2.664 1.406 3.63.593.968-.814-.438-4.663-.506-6.225-.052-1.145.83-2.833-2.243-3.92-1.605-.566-1.184 1.852-.945 2.608Z" fill="#fff"/><path d="M58.086 27.733a2.12 2.12 0 0 0-.803.362c-.228.184-.439.407-.568.666-.265.516-.3 1.098-.188 1.626.223 1.068.925 1.98 1.815 2.66.455.334.96.618 1.518.815.56.186 1.168.305 1.795.263.31-.032.628-.072.924-.196.292-.12.576-.276.788-.495.446-.422.612-1 .556-1.505-.097.51-.353.996-.784 1.292-.415.314-.953.424-1.474.423a4.512 4.512 0 0 1-1.527-.323 5.508 5.508 0 0 1-1.335-.755 5.297 5.297 0 0 1-1.067-1.041 4.117 4.117 0 0 1-.683-1.267c-.04-.114-.06-.23-.086-.345-.011-.118-.038-.235-.035-.353a1.87 1.87 0 0 1 .097-.704c.067-.235.216-.443.385-.644.18-.191.41-.355.672-.479Z" fill="#343132" stroke="#343132" stroke-width=".956" stroke-linejoin="round"/><path d="M59.085 29.882c1.69 1.642 3.23 2.553 4.337 1.911.12-.07.235-.158.344-.266 1.118-1.096-3.73-5.952-4.033-5.927-.302.025-2.358-.035-2.19 1.278.11.863 1.006 2.481 1.542 3.004Z" fill="#fff"/><path d="M60.13 27.067c.911 3.139 3.018 5.686 5.195 4.729 1.44-.636.523-.82.874-1.037.187-.116.773-.092.946-.198 2.917-1.766 2.685-3.98.168-6.822-.24-.272.05-1.187-.05-1.526-.91-3.14-3.206-1.722-5.442-.942-2.236.779-2.601 2.656-1.69 5.796Z" fill="#fff"/><path d="M66.067 24.57c-.666-.047-1.352-.072-2.042.073a4.066 4.066 0 0 0-1.022.347c-.327.173-.654.413-.876.756-.11.17-.192.356-.245.548-.05.181-.072.369-.08.555-.015.373.06.746.228 1.07.166.321.434.589.755.74.32.151.689.179 1.02.093a1.636 1.636 0 0 1-.894-.301 1.56 1.56 0 0 1-.528-.71 2.034 2.034 0 0 1-.107-.887c.014-.15.049-.3.092-.448.043-.137.104-.265.184-.384.33-.476.94-.764 1.559-.962.312-.1.634-.181.961-.255.328-.082.664-.123.995-.235Z" fill="#343132" stroke="#343132" stroke-width=".956" stroke-linejoin="round"/><path d="M67.133 26.667c-.847.081-1.71.19-2.543.495-.416.15-.827.354-1.185.666-.176.157-.33.353-.429.578a1.357 1.357 0 0 0-.1.703c.03.226.12.44.207.618.09.185.196.37.332.54.267.334.687.625 1.176.659.239.021.478-.005.701-.065.224-.062.424-.146.628-.244.197-.106.391-.233.535-.41a.746.746 0 0 0 .145-.295.455.455 0 0 0-.043-.3c.044.198-.064.386-.21.508a1.64 1.64 0 0 1-.526.279c-.389.127-.797.221-1.154.153a1.338 1.338 0 0 1-.85-.564 2.6 2.6 0 0 1-.27-.47 1.597 1.597 0 0 1-.159-.492c-.05-.322.085-.63.353-.887.262-.262.625-.46.995-.636.75-.35 1.579-.56 2.397-.836Z" fill="#343132" stroke="#343132" stroke-width=".956" stroke-linejoin="round"/><path d="M67.617 23.467c.682.567 1.247 1.23 1.629 1.983.183.38.34.772.42 1.183.087.408.122.827.075 1.241a2.958 2.958 0 0 1-1.168 2.14c-.692.524-1.594.766-2.507.868.895.132 1.895.025 2.751-.51.429-.26.79-.639 1.052-1.069.253-.436.396-.922.448-1.404a4.286 4.286 0 0 0-.677-2.68 4.643 4.643 0 0 0-2.023-1.752ZM63.933 30.8a3.477 3.477 0 0 1-1.67-.107 4.516 4.516 0 0 1-1.393-.753c-.82-.64-1.45-1.451-1.978-2.302a7.997 7.997 0 0 1-.659-1.318c-.159-.423-.11-.878.029-1.357.137-.477.32-.974.449-1.488a7.547 7.547 0 0 0 .24-1.565c.046-1.053-.166-2.082-.478-3.055-.153-.474-.301-.944-.329-1.406-.013-.228.007-.458.093-.63.086-.173.222-.27.451-.32.45-.098.99.063 1.428.305.446.244.848.576 1.119.973.135.196.214.415.283.651.066.232.099.474.099.721.003.247-.026.497-.044.753-.02.255-.004.52.095.754-.06-.247-.029-.499.025-.747.05-.25.118-.502.145-.762a2.926 2.926 0 0 0-.107-1.167 2.033 2.033 0 0 0-.169-.37 3.392 3.392 0 0 0-1.172-1.156 3.256 3.256 0 0 0-.813-.359 2.194 2.194 0 0 0-.979-.067c-.17.031-.356.09-.518.197a1.097 1.097 0 0 0-.367.403c-.155.302-.174.594-.169.867.018.547.16 1.051.307 1.537.297.945.47 1.913.433 2.889a6.996 6.996 0 0 1-.21 1.457c-.116.488-.29.97-.42 1.489-.063.26-.118.531-.12.81-.005.28.045.568.149.824.2.497.472.937.762 1.374.586.863 1.304 1.665 2.217 2.285.46.301.973.556 1.54.683.562.133 1.173.12 1.731-.043Z" fill="#343132" stroke="#343132" stroke-width=".956" stroke-linejoin="round"/><path d="M68.2 24.163c-.343-.48-.347-1.051-.364-1.621a4.164 4.164 0 0 0-.103-.884 1.666 1.666 0 0 0-.514-.819 2.18 2.18 0 0 0-.901-.457 3.686 3.686 0 0 0-1.005-.115c-.67.01-1.336.158-1.956.384-1.232.47-2.358 1.208-3.147 2.231-.185.263-.365.536-.457.848-.096.307-.127.648-.01.956.124.304.38.53.662.665.283.141.591.209.9.25a3.089 3.089 0 0 1-.792-.395c-.229-.165-.402-.38-.453-.623-.054-.24 0-.497.11-.739.103-.244.273-.474.457-.69a6.583 6.583 0 0 1 1.347-1.13c.5-.326 1.04-.6 1.604-.802a5.492 5.492 0 0 1 1.72-.372c.577-.037 1.152.063 1.561.355.203.148.353.35.45.586.1.24.15.515.199.795.055.28.103.57.206.846.1.28.26.54.486.73Z" fill="#343132" stroke="#343132" stroke-width=".956" stroke-linejoin="round"/><path fill-rule="evenodd" clip-rule="evenodd" d="M41.535 59.733a2.134 2.134 0 1 1-.004 4.268 2.134 2.134 0 0 1 .004-4.268Z" fill="#5E8428"/><path fill-rule="evenodd" clip-rule="evenodd" d="M41.535 59.733a2.135 2.135 0 0 0-2.135 2.134 2.133 2.133 0 1 0 2.135-2.134Zm0 .246a1.89 1.89 0 0 1 0 3.776 1.89 1.89 0 0 1 0-3.776Z" fill="#54702B"/><path fill-rule="evenodd" clip-rule="evenodd" d="M66.936 32.79c-.643.169-1.12.348-1.436.534-.132.338-.312.825-.545 1.463-.231.637-.487 1.363-.765 2.179l-.492 1.432-.4 1.167c-.316.92-.613 1.815-.893 2.686-.278.87-.533 1.682-.765 2.432-.233.75-.415 1.377-.543 1.883-.095.356-.176.666-.252.928a2.845 2.845 0 0 0-.112.787c0 .581.228 1.035.684 1.364.454.327 1.157.492 2.103.492a4.75 4.75 0 0 0 1.046-.1c.288-.065.562-.144.822-.238.148-.563.298-1.143.446-1.743.149-.6.297-1.18.446-1.743h5.044l.501 1.939c.093.32.201.6.321.844.122.243.28.44.474.59.195.15.446.263.752.339a4.87 4.87 0 0 0 1.13.112c.613 0 1.142-.08 1.588-.24.446-.16.78-.37 1.003-.632a771.963 771.963 0 0 0-2.118-7.632 253.92 253.92 0 0 0-1.17-4.007 99.765 99.765 0 0 0-1.087-3.402c-.205-.581-.665-1.007-1.38-1.279-.716-.273-1.537-.408-2.466-.408-.651 0-1.297.085-1.936.254Zm1.03 6.789c.326-.964.619-1.84.878-2.628h.167c.224.769.47 1.636.74 2.6.269.966.533 1.954.793 2.966h-3.455c.26-.993.552-1.972.877-2.938Z" fill="#5B843A"/><path fill-rule="evenodd" clip-rule="evenodd" d="M119.528 32.79c-.642.169-1.121.348-1.436.534-.131.338-.312.825-.545 1.463-.231.637-.486 1.363-.765 2.179l-.222.646-.67 1.953c-.316.92-.612 1.815-.892 2.686-.279.87-.533 1.682-.765 2.432a39.45 39.45 0 0 0-.544 1.883c-.094.356-.176.666-.252.928a2.844 2.844 0 0 0-.111.787c0 .581.227 1.035.683 1.364.455.327 1.157.492 2.104.492a4.75 4.75 0 0 0 1.045-.1c.288-.065.562-.144.822-.238.149-.563.298-1.143.447-1.743.148-.6.297-1.18.445-1.743h5.045l.501 1.939c.093.32.201.6.32.844.123.243.28.44.475.59.195.15.446.263.751.339.308.074.684.112 1.13.112.613 0 1.142-.08 1.588-.24.447-.16.781-.37 1.004-.632a642.628 642.628 0 0 0-2.118-7.632 252.91 252.91 0 0 0-1.17-4.007 100.917 100.917 0 0 0-1.088-3.402c-.204-.581-.664-1.007-1.379-1.279-.716-.273-1.538-.408-2.467-.408-.651 0-1.296.085-1.936.254Zm1.03 6.789c.326-.964.619-1.84.878-2.628h.168c.222.769.47 1.636.739 2.6.269.966.534 1.954.793 2.966h-3.455c.26-.993.552-1.972.877-2.938Z" fill="#96A53C"/><path fill-rule="evenodd" clip-rule="evenodd" d="M88.367 36.178c-.864-.272-1.826-.407-2.885-.407-1.041 0-2.002.135-2.885.407-.881.273-1.644.685-2.285 1.238-.64.552-1.142 1.251-1.505 2.094-.362.845-.543 1.836-.543 2.98 0 1.162.172 2.165.516 3.007.342.845.799 1.534 1.364 2.068a5.342 5.342 0 0 0 1.98 1.18 7.436 7.436 0 0 0 2.382.38c1.096 0 2.025-.169 2.788-.506v.45c0 .75-.299 1.293-.893 1.63-.595.338-1.393.506-2.397.506a7.197 7.197 0 0 1-2.105-.31 9.328 9.328 0 0 1-1.824-.758c-.224.169-.424.417-.6.745a2.363 2.363 0 0 0-.264 1.138c0 1.031.483 1.777 1.45 2.236.965.458 2.293.688 3.983.688.986 0 1.91-.112 2.775-.338.864-.224 1.615-.575 2.256-1.054a5.152 5.152 0 0 0 1.52-1.799c.372-.722.557-1.58.557-2.572v-9.84c0-.507-.107-.919-.321-1.238a3.408 3.408 0 0 0-.877-.871c-.595-.431-1.324-.782-2.187-1.054Zm-1.729 3.443c.25.075.441.15.571.225v5.172c-.446.356-1.049.535-1.812.535-.704 0-1.286-.24-1.74-.717-.457-.478-.684-1.261-.684-2.348 0-.955.227-1.691.683-2.205.455-.517 1.138-.774 2.05-.774.37 0 .682.037.932.112Z" fill="#5B843A"/><path d="M99.416 49.827a6.348 6.348 0 0 1-.876.168c-.4.056-.813.085-1.24.085-.41 0-.777-.029-1.101-.085a1.854 1.854 0 0 1-.823-.337 1.629 1.629 0 0 1-.516-.69c-.12-.289-.181-.67-.181-1.138v-8.434c0-.431.079-.8.236-1.11.159-.309.386-.586.683-.828a4.917 4.917 0 0 1 1.1-.662 11.528 11.528 0 0 1 2.97-.871 10.446 10.446 0 0 1 1.615-.127c.892 0 1.599.174 2.118.521.521.347.781.913.781 1.701 0 .262-.036.52-.111.772a3.525 3.525 0 0 1-.279.689c-.39 0-.789.019-1.199.056-.408.038-.808.093-1.197.168-.391.077-.758.155-1.101.24a4.75 4.75 0 0 0-.879.295v9.587Z" fill="#5B843A"/><path fill-rule="evenodd" clip-rule="evenodd" d="M106.732 30.598c-.474.486-.711 1.087-.711 1.798 0 .713.238 1.313.711 1.8.474.487 1.101.73 1.882.73.781 0 1.407-.243 1.88-.73.475-.487.711-1.087.711-1.8 0-.712-.236-1.312-.711-1.798-.473-.487-1.099-.731-1.88-.731-.781 0-1.408.244-1.882.73Zm3.345 19.384c.399-.067.702-.118.906-.155V38.384c0-.468-.059-.848-.181-1.138a1.624 1.624 0 0 0-.516-.69 1.86 1.86 0 0 0-.822-.337 6.554 6.554 0 0 0-1.101-.084 7.49 7.49 0 0 0-1.212.099c-.399.066-.701.117-.906.154v11.443c0 .468.06.848.181 1.138.121.29.293.52.517.69.223.169.497.281.821.337.326.056.692.084 1.101.084.408 0 .813-.034 1.212-.098Z" fill="#5B843A"/><path d="M145.644 47.38c-.093.882-.349 1.556-.767 2.024-.418.469-1.027.703-1.825.703a2.931 2.931 0 0 1-1.588-.435c-.466-.29-.967-.782-1.506-1.476l-2.759-3.485v5.116c-.205.037-.506.088-.905.155-.4.064-.804.098-1.212.098-.409 0-.777-.029-1.101-.084a1.843 1.843 0 0 1-.821-.338 1.615 1.615 0 0 1-.517-.689c-.122-.29-.181-.67-.181-1.138V31.553c.204-.056.506-.117.905-.183.4-.065.803-.1 1.213-.1.409 0 .775.03 1.1.085.326.056.6.169.823.338.222.169.395.398.515.69.121.289.181.67.181 1.137v7.422l4.794-4.948c.966 0 1.742.216 2.327.647.586.43.878.974.878 1.63 0 .281-.047.539-.139.773a2.87 2.87 0 0 1-.432.717 6.372 6.372 0 0 1-.753.773c-.307.272-.664.585-1.073.943l-1.617 1.404 4.46 4.5ZM147.678 36.389c.185-.056.477-.113.878-.169a8.942 8.942 0 0 1 1.24-.084c.409 0 .775.028 1.1.084.325.056.6.169.822.337.223.17.395.398.516.69.122.29.18.67.18 1.137v6.045c0 .77.188 1.317.559 1.645.371.327.911.491 1.616.491.427 0 .777-.036 1.046-.112a3.51 3.51 0 0 0 .626-.225v-9.84c.187-.055.479-.112.878-.168a8.953 8.953 0 0 1 1.24-.084c.409 0 .777.028 1.102.084.324.056.598.169.821.337.223.169.396.398.516.69.121.29.182.67.182 1.137v8.548c0 .935-.39 1.64-1.172 2.108-.65.413-1.425.726-2.327.942-.9.215-1.88.323-2.94.323-1.003 0-1.926-.112-2.772-.337-.845-.225-1.575-.572-2.187-1.04a4.648 4.648 0 0 1-1.423-1.814c-.334-.74-.501-1.634-.501-2.684v-8.041Z" fill="#96A53C"/><path d="M94.802 52.672h.697v4.186h.026l1.783-2.224h.783l-1.403 1.694 1.592 2.527h-.774l-1.223-2.032-.784.92v1.112h-.697v-6.183Z" fill="#343132"/><path fill-rule="evenodd" clip-rule="evenodd" d="M102.147 56.51c0-1.207-.603-1.98-1.67-1.98-.956 0-1.876.843-1.876 2.224 0 1.38.886 2.206 2.005 2.206.568 0 1.016-.2 1.377-.435l-.249-.469c-.31.2-.646.33-1.042.33-.8 0-1.343-.573-1.395-1.485h2.824c.017-.105.026-.244.026-.391Zm-1.653-1.415c.654 0 1.033.477 1.033 1.337h-2.238c.086-.851.62-1.337 1.205-1.337Z" fill="#343132"/><path d="M103.069 57.9c.362.295.732.503 1.231.503.551 0 .826-.296.826-.66 0-.434-.499-.625-.955-.799-.594-.217-1.249-.503-1.249-1.216 0-.677.534-1.198 1.438-1.198.525 0 .982.218 1.3.478l-.336.452c-.284-.217-.586-.373-.956-.373-.525 0-.766.286-.766.608 0 .399.456.547.93.729.603.226 1.274.478 1.274 1.276 0 .686-.543 1.26-1.533 1.26-.594 0-1.162-.252-1.558-.582l.354-.479Z" fill="#343132"/><path fill-rule="evenodd" clip-rule="evenodd" d="M108.296 55.12c.679 0 .86.522.86 1.06-1.782.2-2.574.66-2.573 1.58 0 .756.525 1.2 1.23 1.2.517 0 .981-.28 1.386-.61h.017l.06.505h.586v-2.588c0-1.05-.43-1.737-1.455-1.737-.671 0-1.256.296-1.644.548l.284.494c.328-.226.758-.452 1.249-.452Zm.86 2.702c-.404.364-.74.564-1.144.564-.414 0-.732-.2-.732-.677 0-.539.473-.886 1.876-1.06v1.172Z" fill="#343132"/><path d="M111.233 60.08c.473 0 .774-.383.946-.904l.095-.312-1.678-4.23h.731l.853 2.336c.129.365.276.799.404 1.19h.035c.121-.382.241-.816.353-1.19l.749-2.336h.688l-1.575 4.568c-.293.834-.723 1.468-1.567 1.468-.189 0-.353-.035-.491-.087l.138-.565c.086.026.216.062.319.062Z" fill="#343132"/><path fill-rule="evenodd" clip-rule="evenodd" d="M116.554 55.12c.679 0 .86.522.86 1.06-1.781.2-2.574.66-2.573 1.58 0 .756.525 1.199 1.23 1.199.517 0 .981-.279 1.386-.609h.017l.06.504h.586v-2.587c0-1.051-.43-1.737-1.455-1.737-.671 0-1.256.295-1.644.547l.284.495c.328-.226.758-.452 1.249-.452Zm.86 2.702c-.404.364-.74.564-1.144.564-.414 0-.733-.2-.733-.677 0-.539.474-.886 1.877-1.06v1.172Z" fill="#343132"/><path d="M119.456 54.634h.586l.06.608h.026c.396-.399.826-.712 1.403-.712.878 0 1.274.573 1.274 1.65v2.675h-.705v-2.58c0-.79-.241-1.128-.792-1.128-.431 0-.723.225-1.145.651v3.056h-.706v-4.22h-.001Z" fill="#343132"/><path fill-rule="evenodd" clip-rule="evenodd" d="M124.46 58.707v-.034a.78.78 0 0 1-.37-.686c0-.356.24-.634.456-.782v-.034a1.498 1.498 0 0 1-.543-1.138c0-.92.723-1.502 1.575-1.502.233 0 .44.043.594.104h1.455v.547h-.861c.198.191.344.513.344.868 0 .904-.68 1.468-1.532 1.468-.207 0-.439-.053-.629-.148-.146.13-.267.27-.267.504 0 .27.173.46.741.46h.809c.972 0 1.463.304 1.463 1.007 0 .782-.817 1.459-2.117 1.459-1.025 0-1.73-.408-1.73-1.137.001-.357.233-.695.612-.956Zm1.222 1.599c.801 0 1.326-.417 1.326-.86 0-.392-.301-.522-.844-.522h-.723c-.164 0-.361-.017-.542-.07-.302.217-.431.47-.431.712.001.453.456.74 1.214.74Zm-.103-5.254c.491 0 .887.364.887.98 0 .617-.405 1.008-.887 1.008s-.886-.391-.886-1.007c0-.617.395-.981.886-.981ZM129.877 55.12c.679 0 .86.522.86 1.06-1.782.2-2.573.66-2.573 1.58 0 .756.525 1.199 1.23 1.199.517 0 .982-.279 1.386-.609h.017l.06.504h.586v-2.587c0-1.051-.43-1.737-1.455-1.737-.671 0-1.256.295-1.644.547l.284.495c.328-.226.758-.452 1.249-.452Zm.86 2.702c-.404.364-.74.564-1.144.564-.414 0-.732-.2-.732-.677 0-.539.473-.886 1.876-1.06v1.172Z" fill="#343132"/><path d="M132.778 54.634h.586l.06.608h.026c.396-.399.827-.712 1.404-.712.878 0 1.274.573 1.274 1.65v2.675h-.706v-2.58c0-.79-.241-1.128-.792-1.128-.43 0-.723.225-1.144.651v3.056h-.707v-4.22h-.001Z" fill="#343132"/><path fill-rule="evenodd" clip-rule="evenodd" d="M139.935 60.635v-1.424l-.017-.738c.387.303.774.486 1.162.486.955 0 1.807-.843 1.807-2.276 0-1.311-.577-2.153-1.652-2.153-.491 0-.956.269-1.335.59h-.025l-.061-.486h-.585v6.001h.706Zm2.221-3.951c0 1.042-.508 1.676-1.197 1.676-.276 0-.646-.122-1.024-.443v-2.214c.413-.373.766-.573 1.119-.573.792 0 1.102.625 1.102 1.554ZM147.245 56.51c0-1.207-.603-1.98-1.67-1.98-.956 0-1.877.843-1.877 2.224 0 1.38.887 2.206 2.005 2.206.569 0 1.017-.2 1.378-.435l-.25-.469c-.31.2-.645.33-1.041.33-.801 0-1.343-.573-1.395-1.485h2.824c.017-.105.026-.244.026-.391Zm-1.653-1.415c.654 0 1.033.477 1.033 1.337h-2.238c.087-.851.619-1.337 1.205-1.337Z" fill="#343132"/><path d="M148.279 55.216h-.62v-.538l.654-.044.086-1.18h.594v1.18h1.128v.582h-1.128v2.345c0 .521.164.816.646.816.146 0 .335-.061.474-.113l.137.538c-.233.079-.517.157-.774.157-.896 0-1.197-.573-1.197-1.407v-2.336Z" fill="#343132"/><path fill-rule="evenodd" clip-rule="evenodd" d="M152.421 55.12c.679 0 .86.522.86 1.06-1.781.2-2.573.66-2.573 1.58 0 .756.525 1.199 1.23 1.199.517 0 .981-.279 1.386-.609h.017l.06.504h.586v-2.587c0-1.051-.43-1.737-1.455-1.737-.671 0-1.256.295-1.644.547l.284.495c.328-.226.758-.452 1.249-.452Zm.86 2.702c-.404.364-.74.564-1.144.564-.413 0-.732-.2-.732-.677 0-.539.473-.886 1.876-1.06v1.172Z" fill="#343132"/><path d="M155.323 54.634h.586l.06.608h.026c.396-.399.827-.712 1.404-.712.877 0 1.274.573 1.274 1.65v2.675h-.706v-2.58c0-.79-.241-1.128-.792-1.128-.43 0-.723.225-1.145.651v3.056h-.706v-4.22h-.001Z" fill="#343132"/><path fill-rule="evenodd" clip-rule="evenodd" d="M160.438 52.846c-.3 0-.534.182-.534.46 0 .27.234.46.534.46.299 0 .533-.19.533-.46 0-.278-.234-.46-.533-.46Zm.374 1.788h-.767v4.22h.767v-4.22Z" fill="#343132"/></svg>