<svg xmlns="http://www.w3.org/2000/svg" width="106" height="47" fill="none"><path fill="#464646" fill-rule="evenodd" d="M9.563 30.375c1.128 0 2.061-.481 2.772-1.075a6.81 6.81 0 0 0 1.559-1.928l-.027.05s.437-.809-.181-1.36c-.272-.243-.532-.273-.742-.249-.449.052-.747.528-.747.528l-.009.017a4.51 4.51 0 0 1-1.209 1.407c-.947.696-1.992.644-3.106-.087a.72.72 0 0 0-1.075.355l-.219.598a.72.72 0 0 0 .284.85c.995.654 1.901.894 2.7.894Zm28.169-5.259c1.006-.508 1.623-1.358 1.99-2.208a6.826 6.826 0 0 0 .522-2.424l-.001.057s.025-.92-.775-1.133a.904.904 0 0 0-.774.112c-.378.249-.43.808-.43.808v.019c0 .01-.007.936-.445 1.801-.532 1.048-1.488 1.471-2.812 1.321a.723.723 0 0 0-.799.801l.074.632c.04.333.303.595.636.634 1.184.133 2.1-.06 2.814-.42Z" clip-rule="evenodd"/><path fill="#9E8F79" fill-rule="evenodd" d="M20.201 13.375c7.939-2.103 15.323-3.303 15.684-2.102.683 2.27-5.077 6.647-13.016 8.75-7.938 2.103-14.844 1.539-15.482-.745-.291-1.044 4.876-3.8 12.814-5.903Z" clip-rule="evenodd"/><path fill="#464646" fill-rule="evenodd" d="M20.03 12.726c-5.656 1.5-9.926 3.335-11.88 4.66-.706.478-1.138.926-1.31 1.27-.15.297-.164.57-.099.802.238.852 1.115 1.593 2.58 2.028 2.824.84 8.013.697 13.72-.814 5.715-1.515 10.32-4.199 12.333-6.46 1.043-1.169 1.407-2.288 1.153-3.134-.072-.242-.236-.464-.527-.631-.232-.133-.585-.237-1.054-.285-2.367-.244-8.464.855-14.916 2.564Zm15.238-1.136c.03.274-.09.583-.29.924-.316.536-.84 1.112-1.53 1.705-2.218 1.906-6.104 3.925-10.751 5.156-4.654 1.233-8.944 1.538-11.767 1.095-.876-.137-1.603-.345-2.136-.628-.34-.18-.6-.378-.717-.627.114-.12.46-.473.826-.72 1.884-1.278 6.013-3.026 11.47-4.472 5.494-1.455 10.72-2.48 13.484-2.553.433-.012.802 0 1.093.042.113.017.242.054.318.078Z" clip-rule="evenodd"/><path fill="#92B45E" d="m35.828 42.367-15.72 3.348c-1.154.245-2.263-.376-2.478-1.387l-6.575-27.15c-.215-1.01.546-2.03 1.699-2.276l17.237-3.67c1.152-.245 2.262.375 2.478 1.387l5.057 27.471c.216 1.013-.545 2.032-1.698 2.277Z"/><path fill="#464646" fill-rule="evenodd" d="M36.085 43.571c1.851-.394 2.984-2.093 2.649-3.718L33.68 12.396l-.007-.033c-.347-1.63-2.08-2.731-3.939-2.335l-17.237 3.67c-1.859.396-2.993 2.106-2.645 3.737.001.01.005.023.008.034l6.57 27.134c.355 1.62 2.082 2.71 3.934 2.316l15.72-3.348Zm-.257-1.204-15.72 3.348c-1.154.245-2.263-.376-2.478-1.387l-6.575-27.15c-.215-1.01.546-2.03 1.699-2.276l17.237-3.67c1.153-.246 2.263.375 2.478 1.387l5.057 27.471c.216 1.013-.545 2.032-1.698 2.277Z" clip-rule="evenodd"/><path fill="#CBCBCB" d="m34.006 37.742-14.12 3.007c-.987.21-1.929-.29-2.106-1.117l-5.264-21.003c-.177-.827.481-1.668 1.468-1.878l15.636-3.33c.987-.21 1.93.29 2.107 1.117l3.748 21.326c.176.827-.481 1.668-1.469 1.878Z"/><mask id="a" width="24" height="28" x="12" y="13" maskUnits="userSpaceOnUse" style="mask-type:alpha"><path fill="#fff" fill-rule="evenodd" d="m34.006 37.742-14.12 3.007c-.987.21-1.929-.29-2.106-1.117l-5.264-21.003c-.177-.827.481-1.668 1.468-1.878l15.636-3.33c.987-.21 1.93.29 2.107 1.117l3.748 21.326c.176.827-.481 1.668-1.469 1.878Z" clip-rule="evenodd"/></mask><g mask="url(#a)"><path fill="#DCDCDC" d="m15.794 30.355-1.128-5.298c1.628-1.966 6.044-7.131 7.917-9.319l3.623-.772c-2.113 3.052-8.44 12.456-10.412 15.389Z"/></g><mask id="b" width="24" height="28" x="12" y="13" maskUnits="userSpaceOnUse" style="mask-type:alpha"><path fill="#fff" fill-rule="evenodd" d="m34.006 37.742-14.12 3.007c-.987.21-1.929-.29-2.106-1.117l-5.264-21.003c-.177-.827.481-1.668 1.468-1.878l15.636-3.33c.987-.21 1.93.29 2.107 1.117l3.748 21.326c.176.827-.481 1.668-1.469 1.878Z" clip-rule="evenodd"/></mask><g mask="url(#b)"><path fill="#DCDCDC" fill-rule="evenodd" d="m22.583 15.738 3.623-.772c.412-.595.665-.949.692-.965l.005-.001h-.005l-3.458.737s-.327.38-.857 1.001Zm-8.534 10.097 1.152 5.403.593-.883-1.128-5.298c-.39.472-.62.76-.617.778Z" clip-rule="evenodd"/></g><mask id="c" width="24" height="28" x="12" y="13" maskUnits="userSpaceOnUse" style="mask-type:alpha"><path fill="#fff" fill-rule="evenodd" d="m34.006 37.742-14.12 3.007c-.987.21-1.929-.29-2.106-1.117l-5.264-21.003c-.177-.827.481-1.668 1.468-1.878l15.636-3.33c.987-.21 1.93.29 2.107 1.117l3.748 21.326c.176.827-.481 1.668-1.469 1.878Z" clip-rule="evenodd"/></mask><g mask="url(#c)"><path fill="#DCDCDC" d="m25.313 39.593-6.185 1.317S33.15 21.89 33.285 21.861l.67 3.147-8.642 14.585Z"/></g><path fill="#464646" d="M18.696 40.256 13.43 19.252c-.176-.827.48-1.668 1.468-1.878l15.637-3.33c.345-.073.684-.058.988.026-.367-.535-1.12-.816-1.903-.649l-15.636 3.33c-.987.21-1.645 1.05-1.468 1.878l5.264 21.003c.116.537.555.936 1.119 1.091a1.29 1.29 0 0 1-.203-.467Z"/><path fill="#464646" fill-rule="evenodd" d="m23.406 13.235-3.45.71a.445.445 0 0 0 .18.871l3.45-.71a.445.445 0 0 0-.18-.87Zm-4.799.977a.433.433 0 1 1 0 .867.433.433 0 0 1 0-.867Z" clip-rule="evenodd"/><path fill="#353132" d="M20.258 22.272a1.262 1.262 0 1 1-2.47.526 1.262 1.262 0 0 1 2.47-.526Z"/><path fill="#fff" d="M19.049 22.218a.522.522 0 1 1-1.022.218.522.522 0 0 1 1.022-.218Z"/><path fill="#353132" d="M16.894 18.88c-.112.114-.22.246-.24.404-.02.158.087.34.246.345.115.005.212-.079.3-.153a3.744 3.744 0 0 1 1.766-.825c.125-.023.258-.04.361-.116.102-.077.158-.235.079-.335-.046-.057-.123-.082-.197-.096-.833-.168-1.734.189-2.315.777Zm12.792 1.576a1.264 1.264 0 1 1-2.472.526 1.264 1.264 0 0 1 2.472-.526Z"/><path fill="#fff" d="M28.477 20.402a.523.523 0 1 1-1.024.216.523.523 0 0 1 1.024-.216Z"/><path fill="#353132" d="M27.28 16.07c-.15.056-.303.13-.388.265-.084.135-.064.346.079.417.102.052.225.018.336-.013a3.752 3.752 0 0 1 1.95-.003c.123.033.25.072.375.047.124-.027.242-.146.212-.27-.017-.072-.078-.126-.137-.17-.684-.504-1.652-.56-2.427-.273Z"/><path fill="#AF3F3B" d="M22.647 24.88a.252.252 0 0 0-.24.392c.401.603 1.205 1.548 2.253 1.403 1.11-.154 1.517-1.482 1.661-2.244a.256.256 0 0 0-.38-.27 6.61 6.61 0 0 1-1.536.573 5.664 5.664 0 0 1-1.758.147Z"/><path fill="#464646" d="M27.354 22.34c-.145.055.436.173.11.618-.454.614-1.852-.647-2.85-.155-.327.161-.51.42-.61.695a1.208 1.208 0 0 0-.885-.271c-1.108.104-1.637 1.911-2.343 1.626-.513-.207-.08-.612-.232-.582-.59.116-.72 1.463.634 1.784 1.147.271 2.101-.2 2.57-.674.172-.175.399-.413.613-.623.292.066.61.15.848.208.648.158 1.707.06 2.542-.774.984-.982.167-2.062-.397-1.852Z"/><path fill="#CEC4AE" fill-rule="evenodd" d="M16.905 2.561a.637.637 0 0 1 .854-.262l17.504 9.134s-6.044-2-13.933.241C11.17 14.56 8.017 19.041 8.017 19.041l8.888-16.48Z" clip-rule="evenodd"/><path fill="#464646" fill-rule="evenodd" d="M15.758 1.943 6.87 18.423a1.302 1.302 0 0 0 2.212 1.369s3.022-4.142 12.604-6.865c7.456-2.118 13.167-.258 13.167-.258a1.302 1.302 0 0 0 1.012-2.392L18.362 1.145a1.938 1.938 0 0 0-2.604.798Zm1.147.618a.637.637 0 0 1 .854-.262l17.504 9.134s-6.044-2-13.933.241C11.17 14.56 8.017 19.041 8.017 19.041l8.888-16.48Z" clip-rule="evenodd"/><path fill="#464646" fill-rule="evenodd" d="M10.273 14.577s2.822-.64 5.32-2.255a.555.555 0 1 0-.602-.933c-2.332 1.506-4.964 2.104-4.964 2.104a.556.556 0 0 0 .246 1.084Zm1.347-2.983s1.612-.309 3.016-1.197a.556.556 0 0 0-.594-.939c-1.225.775-2.633 1.045-2.633 1.045a.556.556 0 0 0 .21 1.091Z" clip-rule="evenodd"/><path fill="#fff" d="M9.47 29.25c-.699 1.162-1.951 1.762-2.796 1.34-.845-.423-.963-1.706-.264-2.867.7-1.162 1.951-1.761 2.797-1.34.844.422.963 1.706.264 2.868Zm-2.486-8.363c-.043 2.657 1.618 3.641 1.363 4.435-.255.792-1.51 1.464-2.325 1.153-.815-.31-.648-3.06-.918-4.07-.198-.74-1.132-1.626.716-2.975.966-.704 1.172.925 1.164 1.457Z"/><path fill="#464646" stroke="#464646" stroke-linejoin="round" stroke-width=".333" d="M8.662 26.25c.178-.015.365.005.54.07.169.07.335.165.46.299.254.264.388.611.424.953.077.691-.158 1.377-.547 1.954-.2.288-.441.555-.729.778a2.773 2.773 0 0 1-.998.493c-.188.04-.381.073-.579.053a1.404 1.404 0 0 1-.555-.154 1.179 1.179 0 0 1-.615-.813c.154.293.398.541.707.641.302.113.64.081.943-.017a2.69 2.69 0 0 0 .83-.48 3.29 3.29 0 0 0 .633-.707c.182-.257.323-.539.424-.83a2.67 2.67 0 0 0 .154-.898c.001-.076-.01-.151-.017-.226-.016-.073-.023-.15-.047-.22a1.216 1.216 0 0 0-.193-.41 1.183 1.183 0 0 0-.35-.321 1.399 1.399 0 0 0-.485-.166Z"/><path fill="#fff" d="M8.114 27.528c-.66 1.362-1.383 2.23-2.164 2.029a1.105 1.105 0 0 1-.257-.105c-.879-.49.99-4.49 1.173-4.53.183-.041 1.38-.464 1.548.404.11.571-.09 1.77-.3 2.202Z"/><path fill="#fff" d="M6.978 25.878c0 2.06-.895 4.015-2.498 3.897-1.06-.08-.498-.38-.767-.435-.145-.03-.523.105-.656.078-2.24-.446-2.508-1.813-1.402-4.029.106-.212-.257-.697-.257-.919 0-2.06 1.77-1.692 3.378-1.692 1.608-.001 2.202 1.042 2.202 3.1Z"/><path fill="#464646" stroke="#464646" stroke-linejoin="round" stroke-width=".333" d="M2.988 25.369c.445-.174.909-.338 1.409-.398.249-.03.506-.04.767-.005.258.04.53.119.749.285a1.299 1.299 0 0 1 .443.623c.085.23.108.482.057.722a1.135 1.135 0 0 1-.368.628 1.176 1.176 0 0 1-.679.281 1.23 1.23 0 0 0 .551-.384c.133-.165.2-.363.22-.56a1.24 1.24 0 0 0-.105-.58 1.572 1.572 0 0 0-.152-.263.984.984 0 0 0-.202-.201c-.322-.227-.796-.276-1.257-.265-.234.005-.47.023-.709.048-.238.019-.476.067-.724.069Z"/><path fill="#464646" stroke="#464646" stroke-linejoin="round" stroke-width=".333" d="M2.707 27.41c.609-.132 1.234-.248 1.881-.221.324.012.654.062.972.199.158.07.309.172.427.306a.97.97 0 0 1 .224.463c.029.163.014.333-.008.474-.021.15-.054.3-.112.448-.112.29-.34.584-.674.717a1.48 1.48 0 0 1-.503.11 2.71 2.71 0 0 1-.492-.03 1.256 1.256 0 0 1-.463-.165.532.532 0 0 1-.166-.173.332.332 0 0 1-.036-.217c.013.147.13.253.258.305.132.054.28.073.428.077.3.002.605-.023.838-.15a.97.97 0 0 0 .468-.578c.04-.122.07-.252.085-.385.019-.14.024-.259 0-.376-.034-.235-.196-.42-.44-.536-.24-.124-.535-.18-.832-.22-.6-.076-1.225-.038-1.855-.049Z"/><path fill="#464646" stroke="#464646" stroke-linejoin="round" stroke-width=".333" d="M2.042 25.146c-.318.465-.545.964-.642 1.48a2.873 2.873 0 0 0-.04.774c.02.256.077.508.182.74.195.47.597.855 1.123 1.02.526.17 1.13.134 1.716.014-.53.252-1.17.388-1.802.243A2.029 2.029 0 0 1 1.73 29a2.097 2.097 0 0 1-.54-.731 2.519 2.519 0 0 1-.078-1.7 2.99 2.99 0 0 1 .931-1.423Zm3.786 4.389c.367-.043.708-.184.986-.389.28-.205.505-.464.687-.745.365-.564.581-1.201.727-1.842.07-.32.12-.651.13-.966.011-.3-.111-.58-.291-.857-.179-.277-.39-.56-.572-.861-.183-.3-.34-.62-.46-.95-.242-.66-.322-1.355-.33-2.034-.004-.33-.01-.657-.087-.957a.919.919 0 0 0-.183-.383c-.087-.094-.188-.129-.336-.118-.292.026-.584.23-.8.468-.22.241-.394.529-.477.833a1.495 1.495 0 0 0-.039.47c.007.16.037.32.086.477.048.156.116.31.18.47.062.159.106.33.094.498a1.192 1.192 0 0 0-.166-.47c-.08-.149-.172-.297-.241-.457a2.034 2.034 0 0 1-.173-.763c0-.09.01-.18.027-.269a2.214 2.214 0 0 1 .89-1.343c.162-.109.355-.2.577-.229a.86.86 0 0 1 .354.026.732.732 0 0 1 .3.186c.155.162.226.345.28.519.098.352.115.699.125 1.036.011.658.103 1.307.323 1.921.108.306.251.601.421.887.17.287.372.56.555.865.09.153.177.315.236.493.059.176.087.369.076.553a5.14 5.14 0 0 1-.181 1.019c-.18.66-.45 1.31-.874 1.878a2.91 2.91 0 0 1-.79.73 2.08 2.08 0 0 1-1.054.303Z"/><path fill="#464646" stroke="#464646" stroke-linejoin="round" stroke-width=".333" d="M1.528 25.648c.115-.356.007-.704-.093-1.052a2.665 2.665 0 0 1-.108-.556c-.01-.201.042-.411.151-.595a1.36 1.36 0 0 1 .454-.448c.18-.117.379-.201.581-.263a3.79 3.79 0 0 1 1.251-.141c.831.05 1.65.282 2.322.752.163.123.323.255.439.426a.941.941 0 0 1 .19.578.828.828 0 0 1-.27.53c-.143.139-.315.24-.493.322a1.95 1.95 0 0 0 .4-.39.69.69 0 0 0 .153-.463.757.757 0 0 0-.209-.428 1.8 1.8 0 0 0-.408-.33 4.142 4.142 0 0 0-1.028-.427 4.888 4.888 0 0 0-1.118-.18 3.449 3.449 0 0 0-1.108.103c-.353.088-.68.259-.87.514a.86.86 0 0 0-.158.441c-.013.166.011.341.035.52.02.18.047.366.04.553a1.086 1.086 0 0 1-.153.534Z"/><path fill="#fff" d="M38.521 22.303c1.019.894 2.393 1.086 3.071.427.677-.657.4-1.917-.617-2.811-1.019-.895-2.394-1.087-3.071-.428-.678.657-.402 1.917.617 2.812Zm-.164-8.724c.846 2.518-.438 3.96.045 4.638.483.679 1.882.94 2.565.396.683-.543-.31-3.115-.358-4.158-.037-.765.586-1.893-1.584-2.618-1.134-.378-.837 1.237-.668 1.742Z"/><path fill="#464646" stroke="#464646" stroke-linejoin="round" stroke-width=".333" d="M38.383 19.197c-.174.04-.346.117-.493.23-.14.118-.27.26-.348.426-.163.329-.185.7-.116 1.036.137.681.568 1.264 1.114 1.697.278.213.589.395.93.52.344.118.716.194 1.101.168.19-.02.385-.046.567-.125.179-.076.353-.176.483-.316.273-.27.375-.637.34-.96-.06.325-.216.636-.48.824-.255.2-.585.271-.904.27a2.668 2.668 0 0 1-.936-.206 3.33 3.33 0 0 1-.818-.481 3.323 3.323 0 0 1-.654-.664 2.654 2.654 0 0 1-.42-.809c-.024-.072-.036-.146-.052-.22-.007-.075-.024-.15-.022-.225a1.24 1.24 0 0 1 .06-.45 1.16 1.16 0 0 1 .235-.41c.11-.121.252-.226.413-.305Z"/><path fill="#fff" d="M39.291 20.25c1.043 1.098 1.995 1.706 2.678 1.278a1.08 1.08 0 0 0 .213-.178c.69-.733-2.304-3.979-2.49-3.962-.187.016-1.456-.024-1.353.854.068.578.621 1.659.952 2.008Z"/><path fill="#fff" d="M39.874 18.335c.625 1.962 2.07 3.554 3.562 2.955.987-.397.358-.513.6-.648.127-.072.529-.058.648-.124 2-1.103 1.84-2.488.115-4.264-.165-.17.034-.742-.034-.954-.624-1.963-2.198-1.076-3.731-.588-1.533.486-1.784 1.66-1.16 3.623Z"/><path fill="#464646" stroke="#464646" stroke-linejoin="round" stroke-width=".333" d="M43.523 16.639c-.477-.032-.969-.047-1.464.048a3.07 3.07 0 0 0-.732.228c-.234.114-.469.272-.628.498a1.29 1.29 0 0 0-.233.728c-.011.246.044.492.164.705a1.146 1.146 0 0 0 1.272.55 1.24 1.24 0 0 1-.641-.199 1.043 1.043 0 0 1-.378-.468 1.246 1.246 0 0 1-.011-.88.93.93 0 0 1 .132-.254c.236-.313.674-.503 1.117-.634.223-.065.455-.12.69-.168.235-.054.475-.08.712-.154Z"/><path fill="#464646" stroke="#464646" stroke-linejoin="round" stroke-width=".333" d="M44.409 18.498c-.62.06-1.25.138-1.86.361a2.673 2.673 0 0 0-.866.483 1.24 1.24 0 0 0-.314.42.983.983 0 0 0-.073.511c.022.165.087.32.15.45.067.134.144.268.244.392.195.243.502.454.86.479.174.016.35-.004.512-.047a2.77 2.77 0 0 0 .46-.177c.143-.078.285-.17.39-.299a.529.529 0 0 0 .106-.214.33.33 0 0 0-.031-.218c.032.144-.047.28-.154.37-.11.092-.245.154-.384.202-.285.093-.583.16-.844.112a.982.982 0 0 1-.622-.41 1.945 1.945 0 0 1-.198-.341 1.165 1.165 0 0 1-.116-.358c-.037-.234.062-.458.258-.645.192-.19.457-.334.727-.462.551-.255 1.157-.408 1.755-.608Z"/><path fill="#464646" stroke="#464646" stroke-linejoin="round" stroke-width=".333" d="M44.357 16.14c.445.347.812.754 1.06 1.215.12.233.222.474.274.726.057.25.08.507.049.761a1.79 1.79 0 0 1-.76 1.312c-.45.321-1.038.47-1.632.533.582.08 1.233.015 1.79-.313a2.02 2.02 0 0 0 .686-.656c.164-.267.257-.565.291-.86a2.512 2.512 0 0 0-.44-1.645 2.99 2.99 0 0 0-1.318-1.074Zm-2.279 5.33c-.361.07-.729.04-1.056-.072a2.817 2.817 0 0 1-.881-.502c-.519-.427-.918-.968-1.251-1.536a5.522 5.522 0 0 1-.417-.88c-.1-.282-.07-.585.018-.905.087-.318.203-.65.284-.993a5.33 5.33 0 0 0 .152-1.044c.03-.703-.105-1.39-.302-2.039-.097-.317-.191-.63-.208-.939a.903.903 0 0 1 .058-.42c.055-.116.14-.18.286-.213.285-.065.626.042.903.203.282.163.537.384.708.65.086.13.135.277.179.434.042.155.062.317.062.481.002.165-.016.332-.027.503-.013.17-.002.347.06.503a1.167 1.167 0 0 1 .016-.498c.031-.167.074-.336.091-.509a2.057 2.057 0 0 0-.067-.779 1.358 1.358 0 0 0-.107-.247 2.21 2.21 0 0 0-.741-.771 1.989 1.989 0 0 0-.514-.24 1.323 1.323 0 0 0-.62-.045.856.856 0 0 0-.328.132.726.726 0 0 0-.231.268c-.099.202-.11.396-.107.579.01.365.1.702.193 1.026.189.63.298 1.277.274 1.928a4.92 4.92 0 0 1-.132.973c-.075.325-.185.647-.267.993-.04.173-.074.354-.075.54-.003.187.029.379.094.55a5.2 5.2 0 0 0 .482.917c.37.576.825 1.111 1.402 1.525.291.201.615.371.974.456.356.089.743.08 1.095-.029Z"/><path fill="#464646" stroke="#464646" stroke-linejoin="round" stroke-width=".333" d="M44.998 16.463c-.217-.306-.22-.669-.23-1.031a2.694 2.694 0 0 0-.065-.563 1.062 1.062 0 0 0-.324-.52 1.377 1.377 0 0 0-.568-.292 2.31 2.31 0 0 0-.634-.072c-.423.006-.843.1-1.235.244-.777.3-1.487.769-1.985 1.42-.117.167-.23.34-.289.54a.942.942 0 0 0-.006.607.83.83 0 0 0 .418.423c.178.09.373.133.567.159a1.968 1.968 0 0 1-.499-.25.688.688 0 0 1-.286-.397.754.754 0 0 1 .07-.47 1.78 1.78 0 0 1 .288-.44c.243-.27.533-.514.85-.717a4.853 4.853 0 0 1 1.012-.51 3.42 3.42 0 0 1 1.086-.237c.363-.024.726.04.985.226a.862.862 0 0 1 .284.373c.062.153.094.328.125.505.035.179.065.363.13.539.062.176.164.341.306.463Z"/><path fill="#5E8428" fill-rule="evenodd" d="M27.728 40.285a1.365 1.365 0 1 1-.002 2.73 1.365 1.365 0 0 1 .002-2.73Z" clip-rule="evenodd"/><path fill="#54702B" fill-rule="evenodd" d="M27.728 40.202a1.449 1.449 0 1 0 0 2.897 1.449 1.449 0 0 0 0-2.897Zm0 .166a1.282 1.282 0 1 1-.002 2.564 1.282 1.282 0 0 1 .002-2.564Z" clip-rule="evenodd"/><path fill="#565656" fill-rule="evenodd" d="M43.945 22.62c-.421.11-.735.226-.942.348a59.035 59.035 0 0 0-.86 2.366 1928.021 1928.021 0 0 0-.585 1.691 102.667 102.667 0 0 0-1.087 3.329 26.19 26.19 0 0 0-.357 1.224c-.061.233-.115.434-.164.604-.05.171-.074.341-.074.512 0 .379.15.674.449.887.298.213.759.32 1.38.32.268 0 .497-.02.686-.064.189-.042.368-.094.54-.155.097-.366.195-.743.292-1.134.097-.39.195-.768.292-1.134h3.31l.33 1.261c.06.209.13.392.21.55.08.158.183.286.31.383.129.099.293.172.493.22.203.05.45.074.742.074.402 0 .75-.052 1.042-.156.293-.104.512-.24.658-.411a465.178 465.178 0 0 0-1.39-4.964 159.85 159.85 0 0 0-.768-2.606 65.396 65.396 0 0 0-.713-2.213c-.134-.378-.436-.655-.905-.831-.47-.178-1.009-.265-1.618-.265-.428 0-.851.054-1.27.164Zm.675 4.415c.215-.627.407-1.197.577-1.71h.11c.146.501.308 1.065.484 1.692.177.628.35 1.271.521 1.93h-2.266c.17-.647.361-1.284.574-1.912Zm33.831-4.415c-.421.11-.735.226-.942.348a71.503 71.503 0 0 0-.859 2.366l-.585 1.691a92.76 92.76 0 0 0-.585 1.747c-.183.566-.35 1.094-.502 1.582a26.19 26.19 0 0 0-.357 1.224c-.061.233-.116.434-.165.604a1.85 1.85 0 0 0-.073.512c0 .379.149.674.449.887.298.213.759.32 1.38.32.268 0 .496-.02.686-.064a4.5 4.5 0 0 0 .538-.155 63.3 63.3 0 0 0 .293-1.134c.098-.39.195-.768.293-1.134h3.31l.328 1.261c.06.209.132.392.21.55.08.158.184.286.311.383.128.099.293.172.493.22.202.05.449.074.741.074.403 0 .75-.052 1.042-.156.293-.104.512-.24.659-.411a398.76 398.76 0 0 0-1.39-4.964 156.04 156.04 0 0 0-.768-2.606 65.549 65.549 0 0 0-.713-2.213c-.134-.378-.436-.655-.905-.831-.47-.178-1.01-.265-1.619-.265-.427 0-.85.054-1.27.164Zm.676 4.415c.214-.627.406-1.197.576-1.71h.11c.146.501.308 1.065.484 1.692.177.628.35 1.271.52 1.93h-2.266c.17-.647.362-1.284.576-1.912Zm-21.121-2.212a6.345 6.345 0 0 0-1.892-.265c-.684 0-1.314.088-1.894.266a4.143 4.143 0 0 0-1.499.805c-.421.359-.75.813-.988 1.361-.238.55-.356 1.195-.356 1.939 0 .756.112 1.408.338 1.956.225.549.524.997.896 1.344.372.347.804.604 1.299.769a4.923 4.923 0 0 0 1.562.245c.72 0 1.33-.109 1.83-.328v.292c0 .488-.196.842-.586 1.06-.39.22-.914.33-1.572.33a4.76 4.76 0 0 1-1.381-.201 6.155 6.155 0 0 1-1.197-.493c-.147.109-.278.27-.393.483-.116.214-.174.46-.174.741 0 .67.317 1.155.95 1.454.635.298 1.507.447 2.615.447.646 0 1.252-.072 1.82-.219a4.225 4.225 0 0 0 1.48-.686c.421-.31.754-.7.998-1.17s.365-1.027.365-1.673v-6.4c0-.33-.07-.597-.21-.805a2.22 2.22 0 0 0-.576-.567c-.39-.28-.868-.508-1.435-.685Zm-1.134 2.24c.164.049.29.098.374.146v3.364c-.291.232-.687.348-1.188.348-.462 0-.844-.155-1.142-.466-.3-.311-.449-.82-.449-1.527 0-.622.15-1.1.449-1.435.298-.336.747-.503 1.344-.503.244 0 .448.024.612.073Z" clip-rule="evenodd"/><path fill="#565656" d="M65.256 33.701a5.892 5.892 0 0 1-1.39.164c-.268 0-.51-.018-.722-.055a1.228 1.228 0 0 1-.54-.219 1.059 1.059 0 0 1-.338-.448c-.08-.189-.12-.436-.12-.74v-5.486c0-.28.053-.52.156-.722.104-.201.253-.38.448-.538.195-.16.436-.303.722-.43.287-.13.595-.241.923-.339.33-.097.67-.173 1.025-.228a6.887 6.887 0 0 1 1.06-.082c.585 0 1.049.113 1.39.338.341.226.512.594.512 1.106 0 .17-.024.338-.073.503a2.177 2.177 0 0 1-.183.447 8.668 8.668 0 0 0-1.572.146c-.256.05-.497.102-.722.156a3.16 3.16 0 0 0-.576.192v6.235Z"/><path fill="#565656" fill-rule="evenodd" d="M70.056 21.194a1.603 1.603 0 0 0-.466 1.17c0 .463.155.853.466 1.17.31.317.722.476 1.234.476.513 0 .924-.159 1.234-.476.312-.317.467-.707.467-1.17 0-.464-.155-.854-.466-1.17-.312-.317-.722-.476-1.235-.476-.512 0-.923.159-1.234.476ZM72.25 33.8a41.7 41.7 0 0 0 .594-.1h.001v-7.442c0-.305-.039-.552-.119-.74a1.06 1.06 0 0 0-.338-.449 1.23 1.23 0 0 0-.539-.219 4.928 4.928 0 0 0-1.518.01c-.261.041-.46.075-.594.099v7.442c0 .305.04.552.118.74.08.189.192.339.339.449.146.11.326.183.539.219a4.982 4.982 0 0 0 1.518-.009Z" clip-rule="evenodd"/><path fill="#565656" d="M95.585 32.11c-.06.573-.228 1.012-.502 1.317-.275.305-.674.457-1.198.457a1.94 1.94 0 0 1-1.042-.283c-.305-.19-.634-.509-.988-.96l-1.81-2.267v3.328c-.135.024-.333.058-.594.1a4.997 4.997 0 0 1-1.518.009 1.222 1.222 0 0 1-.539-.22c-.147-.11-.26-.26-.339-.448-.08-.188-.118-.435-.118-.74V21.816a6.148 6.148 0 0 1 1.39-.183c.268 0 .508.019.722.055.213.037.393.11.539.22.147.11.26.259.338.448.079.189.119.436.119.74v4.827l3.145-3.218c.634 0 1.143.14 1.526.42.385.28.577.635.577 1.062 0 .182-.03.35-.091.502a1.847 1.847 0 0 1-.284.466 4.127 4.127 0 0 1-.494.503c-.2.177-.435.38-.703.613l-1.062.914 2.926 2.925Zm1.335-7.15a5.939 5.939 0 0 1 1.39-.164c.268 0 .509.018.722.055.214.036.393.11.54.219.146.11.259.259.338.448.08.19.118.436.118.74v3.932c0 .5.123.856.366 1.07.244.213.598.319 1.061.319.28 0 .509-.024.686-.073a2.45 2.45 0 0 0 .411-.146v-6.4a5.935 5.935 0 0 1 1.389-.164c.268 0 .51.018.723.054.213.037.392.11.539.22.146.11.26.258.339.448.079.189.118.435.118.74v5.56c0 .608-.256 1.065-.768 1.37-.427.269-.936.472-1.527.613-.591.14-1.234.21-1.929.21a7.13 7.13 0 0 1-1.819-.22 4.082 4.082 0 0 1-1.435-.676 3.031 3.031 0 0 1-.933-1.18c-.22-.482-.33-1.063-.33-1.746V24.96h.001ZM62.228 35.551h.458v2.723h.017l1.169-1.446h.513l-.92 1.101 1.045 1.644H64l-.8-1.323-.514.6v.722h-.457V35.55Z"/><path fill="#565656" fill-rule="evenodd" d="M67.047 38.048c0-.785-.396-1.288-1.096-1.288-.627 0-1.231.548-1.231 1.446 0 .898.581 1.435 1.316 1.435.373 0 .667-.13.904-.283l-.164-.304c-.203.13-.423.214-.683.214-.525 0-.881-.373-.915-.965h1.852c.012-.069.017-.159.017-.255Zm-1.085-.92c.43 0 .678.31.678.87h-1.468c.056-.554.406-.87.79-.87Z" clip-rule="evenodd"/><path fill="#565656" d="M67.652 38.952c.237.192.48.328.808.328.361 0 .542-.192.542-.43 0-.282-.328-.407-.627-.519-.39-.141-.82-.328-.82-.79 0-.441.351-.78.944-.78.345 0 .644.14.853.31l-.22.294c-.187-.14-.384-.242-.627-.242-.345 0-.503.186-.503.395 0 .26.3.355.61.474.396.147.837.311.837.83 0 .447-.356.82-1.006.82a1.65 1.65 0 0 1-1.022-.38l.231-.31Z"/><path fill="#565656" fill-rule="evenodd" d="M71.081 37.144c.446 0 .565.34.565.69-1.17.129-1.689.428-1.688 1.028 0 .491.344.78.807.78.339 0 .644-.182.91-.396h.01l.04.327h.384v-1.682c0-.684-.282-1.13-.954-1.13-.441 0-.825.192-1.08.356l.188.321c.214-.147.496-.294.818-.294Zm.565 1.757c-.266.237-.486.367-.751.367-.271 0-.48-.13-.48-.44 0-.35.31-.576 1.23-.69v.763Z" clip-rule="evenodd"/><path fill="#565656" d="M73.008 40.37c.31 0 .509-.249.621-.588l.063-.203-1.102-2.751h.48l.56 1.52c.084.236.18.519.264.773h.023c.08-.249.158-.532.232-.774l.491-1.52h.452l-1.034 2.971c-.192.542-.474.954-1.028.954a.908.908 0 0 1-.322-.056l.09-.367a.783.783 0 0 0 .21.04Z"/><path fill="#565656" fill-rule="evenodd" d="M76.5 37.144c.446 0 .564.34.564.69-1.169.129-1.688.428-1.688 1.028 0 .491.345.78.808.78.339 0 .644-.182.91-.396h.01l.04.327h.384v-1.682c0-.684-.282-1.13-.955-1.13-.44 0-.824.192-1.078.356l.186.321c.215-.147.497-.294.819-.294Zm.564 1.757c-.265.237-.485.367-.75.367-.271 0-.481-.13-.481-.44 0-.35.31-.576 1.231-.69v.763Z" clip-rule="evenodd"/><path fill="#565656" d="M78.404 36.828h.384l.04.395h.017c.26-.26.542-.463.92-.463.577 0 .837.373.837 1.073v1.74h-.464v-1.678c0-.514-.158-.735-.519-.735-.283 0-.475.147-.751.424v1.988h-.463v-2.744Z"/><path fill="#565656" fill-rule="evenodd" d="M81.687 39.477v-.023a.506.506 0 0 1-.243-.446c0-.232.158-.412.3-.508v-.023a.972.972 0 0 1-.356-.74c0-.598.474-.977 1.033-.977.153 0 .289.028.39.068h.955v.355H83.2c.13.125.226.334.226.565 0 .588-.446.955-1.005.955a.955.955 0 0 1-.412-.097c-.097.085-.176.176-.176.328 0 .175.113.3.486.3h.53c.639 0 .961.198.961.655 0 .508-.536.949-1.39.949-.671 0-1.134-.266-1.134-.74-.001-.231.152-.451.4-.621Zm.802 1.04c.525 0 .87-.272.87-.56 0-.254-.198-.338-.553-.338h-.475c-.107 0-.237-.012-.355-.046-.198.141-.283.305-.283.463 0 .293.299.48.796.48Zm-.068-3.418c.322 0 .582.238.582.638 0 .402-.266.656-.582.656-.315 0-.581-.254-.581-.656 0-.4.26-.638.581-.638Zm2.82.045c.446 0 .564.34.564.69-1.168.129-1.688.428-1.688 1.028 0 .491.345.78.808.78.339 0 .644-.182.91-.396h.01l.04.327h.384v-1.682c0-.684-.282-1.13-.955-1.13-.44 0-.824.192-1.079.356l.187.321c.215-.147.497-.294.819-.294Zm.564 1.757c-.265.237-.485.367-.75.367-.272 0-.481-.13-.481-.44 0-.35.31-.576 1.231-.69v.763Z" clip-rule="evenodd"/><path fill="#565656" d="M87.144 36.828h.385l.039.395h.017c.26-.26.542-.463.92-.463.577 0 .837.373.837 1.073v1.74h-.464v-1.678c0-.514-.158-.735-.52-.735-.282 0-.474.147-.75.424v1.988h-.464v-2.744Z"/><path fill="#565656" fill-rule="evenodd" d="M91.84 40.731v-.927l-.012-.48c.255.199.508.317.763.317.627 0 1.186-.548 1.186-1.48 0-.853-.379-1.4-1.085-1.4-.321 0-.626.174-.875.383H91.8l-.04-.316h-.383v3.903h.463Zm1.457-2.57c0 .678-.333 1.09-.785 1.09-.18 0-.424-.079-.672-.287v-1.441c.271-.243.503-.373.734-.373.52 0 .723.407.723 1.01Zm3.339-.113c0-.785-.395-1.288-1.096-1.288-.627 0-1.231.548-1.231 1.446 0 .898.581 1.435 1.316 1.435.372 0 .666-.13.903-.283l-.163-.304a1.24 1.24 0 0 1-.684.214c-.525 0-.88-.373-.915-.965h1.853c.011-.069.017-.159.017-.255Zm-1.084-.92c.429 0 .678.31.678.87h-1.47c.056-.554.407-.87.79-.87Z" clip-rule="evenodd"/><path fill="#565656" d="M97.315 37.206h-.407v-.35l.43-.028.056-.768h.39v.768h.74v.378h-.74v1.525c0 .34.107.531.423.531.096 0 .22-.04.31-.073l.091.35c-.153.05-.339.102-.508.102-.588 0-.785-.372-.785-.915v-1.52Z"/><path fill="#565656" fill-rule="evenodd" d="M100.032 37.144c.446 0 .565.34.565.69-1.17.129-1.689.428-1.689 1.028 0 .491.344.78.808.78.339 0 .644-.182.909-.396h.011l.04.327h.384v-1.682c0-.684-.282-1.13-.954-1.13-.44 0-.825.192-1.08.356l.187.321c.215-.147.497-.294.819-.294Zm.565 1.757c-.265.237-.486.367-.751.367-.271 0-.48-.13-.48-.44 0-.35.31-.576 1.231-.69v.763Z" clip-rule="evenodd"/><path fill="#565656" d="M101.936 36.828h.384l.04.395h.017c.26-.26.542-.463.921-.463.576 0 .836.373.836 1.073v1.74h-.463v-1.678c0-.514-.158-.735-.52-.735-.282 0-.474.147-.751.424v1.988h-.464v-2.744Z"/><path fill="#565656" fill-rule="evenodd" d="M105.264 35.664c-.181 0-.321.119-.321.3 0 .175.14.3.321.3s.322-.125.322-.3c0-.181-.141-.3-.322-.3Zm.226 1.164h-.463v2.745h.463v-2.745Z" clip-rule="evenodd"/></svg>